<svg xmlns="http://www.w3.org/2000/svg" xmlns:xlink="http://www.w3.org/1999/xlink" version="1.1" x="0px" y="0px" viewBox="0 0 512 640" enable-background="new 0 0 512 512" xml:space="preserve">
  <g fill="#fff">
    <path d="M256,0C139.167,0,44.467,94.708,44.467,211.533C44.467,372.184,256,512,256,512s211.533-139.816,211.533-300.467   C467.533,94.708,372.833,0,256,0z M256,375.941c-90.8,0-164.4-73.6-164.4-164.408c0-90.8,73.601-164.408,164.4-164.408   s164.417,73.608,164.417,164.408C420.417,302.342,346.8,375.941,256,375.941z"/>
    <path d="M273.558,111.267H258.5v134.767c-9.617-5.316-22.759-7.05-36.259-3.783c-23.725,5.667-39.533,24.55-35.3,42.133   c4.225,17.601,26.884,27.201,50.6,21.5c21.708-5.183,36.766-21.399,35.983-37.583h0.033V158.083   c24.625,18.167,46.268,15.75,50.259,59C371.642,144.383,275.566,146.3,273.558,111.267z"/>
  </g>
</svg>
